<svg width="12" height="15" viewBox="0 0 12 15" fill="none" xmlns="http://www.w3.org/2000/svg">
<path d="M10.23 14.208H3.60999C3.2652 14.208 2.93459 14.071 2.6908 13.8272C2.447 13.5834 2.31006 13.2528 2.31006 12.908V3.76801C2.31006 3.42322 2.447 3.09255 2.6908 2.84875C2.93459 2.60496 3.2652 2.46802 3.60999 2.46802H10.23C10.5748 2.46802 10.9055 2.60496 11.1493 2.84875C11.3931 3.09255 11.53 3.42322 11.53 3.76801V12.908C11.53 13.2528 11.3931 13.5834 11.1493 13.8272C10.9055 14.071 10.5748 14.208 10.23 14.208V14.208ZM3.60999 3.12799C3.43971 3.12825 3.27651 3.19597 3.15601 3.31628C3.03551 3.4366 2.96757 3.59974 2.96704 3.77002V12.91C2.96757 13.0803 3.03551 13.2434 3.15601 13.3637C3.27651 13.484 3.43971 13.5517 3.60999 13.552H10.23C10.4002 13.5517 10.5634 13.484 10.6837 13.3636C10.8041 13.2433 10.8717 13.0802 10.8719 12.91V3.77002C10.8717 3.59983 10.8041 3.43669 10.6837 3.31635C10.5634 3.196 10.4002 3.12826 10.23 3.12799H3.60999Z" fill="white"/>
<path d="M0.994995 10.453H0.338989V2.46698C0.339783 1.96994 0.537579 1.49349 0.889038 1.14203C1.2405 0.79057 1.71695 0.592773 2.21399 0.59198H7.62598V1.24799H2.21399C1.89085 1.24851 1.58115 1.3771 1.35266 1.60559C1.12417 1.83408 0.995524 2.14384 0.994995 2.46698V10.453Z" fill="white"/>
</svg>
