<svg width="16" height="16" viewBox="0 0 16 16" fill="none" xmlns="http://www.w3.org/2000/svg">
<path d="M9.34399 1.66602C9.34386 1.56547 9.36359 1.46585 9.40198 1.37292C9.44036 1.28 9.4967 1.19553 9.56775 1.12439C9.6388 1.05325 9.72316 0.99682 9.81604 0.958313C9.90892 0.919806 10.0085 0.900024 10.109 0.900024H14.797C15.0002 0.900024 15.195 0.980676 15.3386 1.12433C15.4823 1.26798 15.563 1.46286 15.563 1.66602V6.354C15.563 6.45455 15.5431 6.55409 15.5046 6.64697C15.4661 6.73985 15.4098 6.82421 15.3386 6.89526C15.2675 6.96631 15.183 7.02265 15.0901 7.06104C14.9972 7.09942 14.8975 7.11915 14.797 7.11902V7.11902C14.6965 7.11915 14.5968 7.09942 14.5039 7.06104C14.411 7.02265 14.3265 6.96631 14.2554 6.89526C14.1842 6.82421 14.1279 6.73985 14.0894 6.64697C14.0508 6.55409 14.031 6.45455 14.031 6.354V5.36401C14.0309 5.21249 13.986 5.06436 13.9017 4.93842C13.8175 4.81247 13.6978 4.71434 13.5577 4.65643C13.4177 4.59852 13.2637 4.58345 13.1151 4.6131C12.9665 4.64275 12.8301 4.71579 12.723 4.823L8.88599 8.66101C8.74235 8.80458 8.54757 8.88519 8.34448 8.88519C8.1414 8.88519 7.94662 8.80458 7.80298 8.66101V8.66101C7.65941 8.51737 7.57874 8.32259 7.57874 8.11951C7.57874 7.91642 7.65941 7.72164 7.80298 7.578L11.641 3.74103C11.7482 3.63396 11.8213 3.49747 11.851 3.34888C11.8806 3.20029 11.8654 3.04627 11.8075 2.90625C11.7496 2.76623 11.6515 2.64649 11.5255 2.56226C11.3996 2.47802 11.2515 2.43304 11.1 2.43298H10.11C10.0093 2.43312 9.90959 2.41339 9.81653 2.37488C9.72347 2.33637 9.63892 2.27982 9.56775 2.20856C9.49658 2.1373 9.44012 2.05271 9.40173 1.95959C9.36334 1.86648 9.34373 1.76673 9.34399 1.66602V1.66602ZM12.158 15.899H1.32898C1.12582 15.899 0.931006 15.8183 0.787354 15.6746C0.643701 15.531 0.562988 15.3362 0.562988 15.133V4.29999C0.562988 4.19944 0.582831 4.0999 0.621338 4.00702C0.659845 3.91414 0.716333 3.82978 0.787476 3.75873C0.858618 3.68768 0.942959 3.63134 1.03589 3.59296C1.12882 3.55457 1.22843 3.53484 1.32898 3.53497H7.84595C7.99726 3.53523 8.14514 3.5803 8.27087 3.66449C8.39661 3.74868 8.49462 3.86825 8.55249 4.00806C8.61036 4.14787 8.62552 4.30165 8.59607 4.45007C8.56662 4.59849 8.49383 4.73486 8.38696 4.84198V4.84198C8.24292 4.98522 8.04811 5.06573 7.84497 5.06598H2.85999C2.65683 5.06598 2.46201 5.14669 2.31836 5.29034C2.17471 5.434 2.09399 5.62881 2.09399 5.83197V13.6C2.09399 13.8031 2.17471 13.998 2.31836 14.1417C2.46201 14.2853 2.65683 14.366 2.85999 14.366H10.627C10.8298 14.366 11.0245 14.2854 11.168 14.1419C11.3114 13.9984 11.392 13.8039 11.392 13.601V8.61401C11.3922 8.41066 11.4731 8.21572 11.6169 8.07202V8.07202C11.7241 7.96509 11.8606 7.89233 12.0092 7.86292C12.1577 7.8335 12.3116 7.84874 12.4514 7.90674C12.5913 7.96473 12.7108 8.06284 12.7949 8.18872C12.879 8.31461 12.9239 8.46262 12.924 8.61401V15.132C12.9242 15.2328 12.9046 15.3326 12.8662 15.4257C12.8278 15.5189 12.7715 15.6036 12.7003 15.6749C12.6292 15.7463 12.5446 15.8029 12.4515 15.8415C12.3585 15.8801 12.2587 15.9 12.158 15.9V15.899Z" fill="white"/>
</svg>
