<svg xmlns="http://www.w3.org/2000/svg" viewBox="0 0 20 23"><defs><style>.cls-1{opacity:1;}.cls-2{opacity:1;}.cls-3{fill:#fff;fill-rule:evenodd;}</style></defs><g id="Layer_2" data-name="Layer 2"><g id="Layer_1-2" data-name="Layer 1"><g class="cls-1"><g class="cls-2"><path class="cls-3" d="M7.44,1.3C6.07,2,5,2.62,5,2.64s3.28,1.73,3.4,1.73A7.75,7.75,0,0,0,9.21,4L10,3.58,10.8,4l.82.42L13,3.82a12,12,0,0,0,2.23-1c-.05,0-.78-.44-2.77-1.49L10.36.18A2,2,0,0,0,10,0S8.81.59,7.44,1.3Zm-6,3.11L0,5.15V8.38c0,1.78,0,3.23,0,3.23s.73-.3,1.56-.67l1.52-.68V6.86l.74.4,1.72.93,1,.53L7,8.52l.81-.37,1.14-.52a8.33,8.33,0,0,0,.86-.41A19,19,0,0,0,6.51,5.4C4.65,4.45,3.06,3.66,3,3.67a14.23,14.23,0,0,0-1.56.74Zm14,.21c-1,.44-1.76.81-1.76.84s.53.33,1.17.69a12.15,12.15,0,0,1,1.18.71s-.57.3-1.27.62L10.84,9.25l-4.9,2.22L3.46,12.59.15,14.1c-.09.06-.11.37-.13,2L0,18l1.28.65,1.27.65,1.77-.8c1-.44,1.77-.82,1.77-.85a1.82,1.82,0,0,0-.4-.26c-.22-.11-.68-.37-1-.56a6.27,6.27,0,0,0-.74-.4c-.07,0-.13-.07-.13-.1s.78-.39,1.73-.82l6.29-2.83,4.07-1.84L19,9.41,19.89,9l0-1.92,0-1.92-1.29-.67c-.71-.36-1.32-.66-1.35-.66s-.85.36-1.83.8Zm4.09,6.94c-.19.1-.57.27-.84.39l-1.14.51-.64.3,0,1.69a13.32,13.32,0,0,1-.07,1.68c-.08,0-1.29-.63-2.51-1.29-.88-.47-.94-.49-1.14-.38l-1.59.71c-.75.33-1.39.62-1.42.65s1.48.85,3.37,1.82L17,19.42l1.46-.75A16.55,16.55,0,0,0,20,17.82c.07-.11.06-6.44,0-6.43l-.39.17ZM11.45,19l-.76.33c-.77.33-.62.34-1.53-.11-.6-.31-.86-.4-1-.35l-1.63.73c-.81.37-1.5.67-1.53.67-.34,0,.22.34,2.4,1.44L10,23l1.08-.53c.59-.3,1.78-.88,2.65-1.3s1.57-.78,1.55-.8l-1.61-.83-1.59-.8Z"/></g></g></g></g></svg>