<svg width="46" height="46" viewBox="0 0 46 46" fill="none" xmlns="http://www.w3.org/2000/svg">
<path d="M41.647 27.1088C44 16.9684 37.6869 6.8405 27.5465 4.48759C17.4061 2.13468 7.27822 8.44771 4.9253 18.5881C2.57239 28.7286 8.88542 38.8564 19.0259 41.2093C29.1663 43.5622 39.2941 37.2492 41.647 27.1088Z" fill="#627EEA"/>
<path d="M23.877 8.71302V19.163L32.71 23.11L23.877 8.71302Z" fill="white" fill-opacity="0.6"/>
<path d="M23.877 8.71302L15.043 23.113L23.877 19.166V8.71302Z" fill="white"/>
<path d="M23.877 29.882V36.982L32.716 24.754L23.877 29.882Z" fill="white" fill-opacity="0.6"/>
<path d="M23.877 36.983V29.883L15.043 24.757L23.877 36.983Z" fill="white"/>
<path d="M23.877 28.239L32.71 23.11L23.877 19.166V28.239Z" fill="white" fill-opacity="0.2"/>
<path d="M15.043 23.11L23.877 28.239V19.166L15.043 23.11Z" fill="white" fill-opacity="0.6"/>
</svg>
