<svg width="22" height="13" viewBox="0 0 22 13" fill="none" xmlns="http://www.w3.org/2000/svg">
<g opacity="0.2">
<path d="M6.05008 0.780045C7.25648 0.771925 8.43806 1.12218 9.4451 1.78651C10.4521 2.45085 11.2393 3.39931 11.7066 4.51155C12.1739 5.6238 12.3004 6.84973 12.07 8.03395C11.8396 9.21818 11.2627 10.3073 10.4125 11.1633C9.56232 12.0192 8.47711 12.6034 7.29447 12.8418C6.11182 13.0802 4.88506 12.9619 3.76969 12.5022C2.65431 12.0424 1.70057 11.2618 1.02945 10.2592C0.358334 9.2567 6.04403e-05 8.07741 3.31086e-05 6.87099C-0.00528029 5.26103 0.629137 3.71491 1.76371 2.57265C2.89827 1.43039 4.44012 0.785606 6.05008 0.780045V0.780045ZM15.7111 1.14699C17.3821 1.14699 18.736 3.71404 18.736 6.88204C18.736 10.048 17.3811 12.616 15.7111 12.616C14.0411 12.616 12.6861 10.048 12.6861 6.88204C12.6861 3.71604 14.0411 1.14699 15.7111 1.14699V1.14699ZM20.387 1.73402C20.975 1.73402 21.4511 4.03399 21.4511 6.87099C21.4511 9.70799 20.975 12.008 20.387 12.008C19.799 12.008 19.324 9.70799 19.324 6.87099C19.324 4.03399 19.8 1.73402 20.387 1.73402V1.73402Z" fill="white"/>
</g>
</svg>
