<svg width="17" height="18" viewBox="0 0 17 18" fill="none" xmlns="http://www.w3.org/2000/svg">
<path d="M8.23999 17.065H9.04004C11.1817 16.974 13.2054 16.0592 14.6886 14.5115C16.1718 12.9639 17 10.9031 17 8.75952C17 6.6159 16.1718 4.55513 14.6886 3.00751C13.2054 1.45989 11.1817 0.545016 9.04004 0.453979H8.24902L8.24194 0.460022C6.12399 0.583088 4.13323 1.51116 2.67725 3.0542C1.22126 4.59724 0.410278 6.63849 0.410278 8.76001C0.410278 10.8815 1.22126 12.9228 2.67725 14.4658C4.13323 16.0089 6.12399 16.9369 8.24194 17.06L8.23999 17.065ZM3.21899 14.138C3.7497 13.7531 4.31947 13.4253 4.91895 13.16C5.49098 14.3552 6.29612 15.4242 7.28699 16.304C5.74152 16.0146 4.32182 15.2587 3.21899 14.138ZM8.36401 16.356C7.15604 15.4528 6.1804 14.275 5.51794 12.92C6.43229 12.5876 7.39208 12.3968 8.36401 12.354V16.356ZM8.36401 11.711C7.3029 11.7555 6.25516 11.9643 5.25806 12.33C4.87784 11.3813 4.65355 10.3773 4.59399 9.35699H8.36401V11.711ZM8.36401 8.711H4.57397C4.5772 7.66423 4.75226 6.6251 5.09204 5.63501C6.13662 6.04624 7.24241 6.28045 8.36401 6.328V8.711ZM9.97302 16.323C11.0077 15.4115 11.8411 14.2945 12.42 13.043C13.0651 13.3049 13.6789 13.6379 14.25 14.036C13.1095 15.2414 11.6087 16.0443 9.97302 16.324V16.323ZM14.673 13.55C14.0488 13.1069 13.3753 12.7378 12.666 12.45C13.0483 11.4578 13.2723 10.4117 13.33 9.34998H16.33C16.2166 10.8856 15.6396 12.3507 14.675 13.551L14.673 13.55ZM14.913 4.28998C15.843 5.57567 16.3472 7.1202 16.355 8.70697H13.349C13.3451 7.61911 13.1675 6.53889 12.823 5.50702C13.5664 5.18673 14.2688 4.77849 14.915 4.29102L14.913 4.28998ZM14.5129 3.784C13.9207 4.23129 13.278 4.60756 12.598 4.90503C12.0151 3.4852 11.1152 2.21748 9.96704 1.19897C11.7414 1.49762 13.3532 2.41351 14.5179 3.78497L14.5129 3.784ZM9.00098 1.23499C10.3295 2.2489 11.3648 3.59759 12.001 5.14301C11.0375 5.48822 10.0243 5.67465 9.00098 5.69501V1.23499ZM9.00098 6.33502C10.0994 6.31362 11.187 6.11331 12.2209 5.742C12.5363 6.6982 12.699 7.69816 12.703 8.70502H9.00305L9.00098 6.33502ZM9.00098 9.34998H12.683C12.6256 10.3351 12.4155 11.3054 12.0601 12.226C11.0729 11.8968 10.0414 11.7197 9.00098 11.701V9.34998ZM9.00098 12.341C9.95512 12.359 10.9012 12.5195 11.808 12.817C11.161 14.1793 10.1988 15.3677 9.00098 16.284V12.341ZM8.35901 1.164V5.68298C7.3164 5.63575 6.28881 5.41614 5.31799 5.03302C5.97379 3.49834 7.02487 2.16501 8.36401 1.16901L8.35901 1.164ZM7.28296 1.21503C6.18015 2.20003 5.30789 3.4158 4.72803 4.776C4.09421 4.4746 3.49581 4.10363 2.94397 3.66998C4.07827 2.39178 5.60728 1.52941 7.28796 1.21997L7.28296 1.21503ZM2.53796 4.16803C3.1418 4.64447 3.7981 5.05039 4.49402 5.37799C4.12102 6.44942 3.92907 7.57552 3.92603 8.71002H1.00806C1.0167 7.07167 1.55509 5.48003 2.54297 4.17297L2.53796 4.16803ZM1.03296 9.354H3.94604C4.00561 10.4572 4.24541 11.5433 4.65601 12.569C3.99311 12.8616 3.36434 13.2261 2.78101 13.656C1.76557 12.4408 1.15603 10.9382 1.03796 9.35901L1.03296 9.354Z" fill="white"/>
</svg>
