<svg width="38" height="34" viewBox="0 0 38 34" fill="none" xmlns="http://www.w3.org/2000/svg">
<path d="M19.4999 29.393C26.4035 29.393 31.9999 23.7966 31.9999 16.893C31.9999 9.98945 26.4035 4.39301 19.4999 4.39301C12.5964 4.39301 6.99994 9.98945 6.99994 16.893C6.99994 23.7966 12.5964 29.393 19.4999 29.393Z" fill="white"/>
<path d="M20.0869 17.16C19.5941 16.8989 19.0186 16.8415 18.4839 17.0002C17.9492 17.1588 17.4981 17.5209 17.2275 18.0085C16.9568 18.4961 16.8882 19.0704 17.0364 19.6081C17.1846 20.1457 17.5377 20.6038 18.0199 20.884V23.691C18.0283 23.9595 18.1408 24.2143 18.3337 24.4013C18.5267 24.5883 18.7848 24.6929 19.0534 24.6929C19.3221 24.6929 19.5802 24.5883 19.7731 24.4013C19.966 24.2143 20.0786 23.9595 20.0869 23.691V20.884C20.4187 20.6993 20.6952 20.4293 20.8876 20.1019C21.0801 19.7746 21.1815 19.4017 21.1815 19.022C21.1815 18.6422 21.0801 18.2694 20.8876 17.942C20.6952 17.6146 20.4187 17.3447 20.0869 17.16V17.16Z" fill="#6049CD"/>
<path d="M21.163 12.178C21.1691 11.8971 21.1191 11.6179 21.0158 11.3566C20.9125 11.0953 20.7581 10.8572 20.5616 10.6564C20.3651 10.4556 20.1305 10.2961 19.8715 10.1871C19.6126 10.0782 19.3344 10.0221 19.0535 10.0221C18.7725 10.0221 18.4944 10.0782 18.2354 10.1871C17.9764 10.2961 17.7418 10.4556 17.5453 10.6564C17.3488 10.8572 17.1944 11.0953 17.0912 11.3566C16.9879 11.6179 16.9379 11.8971 16.944 12.178V14.278H21.163V12.178Z" fill="#9D62F5"/>
<path d="M28.48 0.830017H9.62795L0.199951 17.155L3.78996 23.371L9.62595 33.48H28.48L34.317 23.371L37.904 17.155L28.48 0.830017ZM26.88 25.684C26.8801 25.9017 26.8373 26.1173 26.7541 26.3184C26.6709 26.5196 26.5489 26.7024 26.395 26.8563C26.2411 27.0103 26.0584 27.1324 25.8573 27.2158C25.6562 27.2991 25.4406 27.342 25.223 27.342H12.887C12.6691 27.3421 12.4534 27.2993 12.2522 27.2161C12.0509 27.1328 11.868 27.0107 11.7139 26.8568C11.5599 26.7028 11.4376 26.5199 11.3543 26.3187C11.2709 26.1175 11.228 25.9018 11.228 25.684V15.934C11.228 15.7162 11.2709 15.5004 11.3542 15.2991C11.4376 15.0979 11.5598 14.915 11.7139 14.7609C11.8679 14.6069 12.0508 14.4847 12.2521 14.4013C12.4534 14.3179 12.6691 14.275 12.887 14.275H13.844V12.175C13.844 10.7932 14.3929 9.46803 15.3699 8.49097C16.347 7.5139 17.6722 6.96503 19.054 6.96503C20.4357 6.96503 21.7609 7.5139 22.738 8.49097C23.715 9.46803 24.264 10.7932 24.264 12.175V14.275H25.221C25.4387 14.2752 25.6543 14.3182 25.8554 14.4016C26.0565 14.4851 26.2392 14.6073 26.393 14.7614C26.5469 14.9154 26.6689 15.0982 26.7521 15.2994C26.8353 15.5006 26.8781 15.7163 26.878 15.934L26.88 25.684Z" fill="#9D62F5"/>
<path d="M34.3169 23.371L28.4799 33.48H9.62793L3.79193 23.371L11.2279 15.934V25.684C11.2279 25.9018 11.2708 26.1175 11.3542 26.3187C11.4376 26.5199 11.5598 26.7028 11.7139 26.8568C11.868 27.0107 12.0509 27.1328 12.2521 27.2161C12.4534 27.2993 12.6691 27.3421 12.8869 27.342H25.2209C25.4386 27.342 25.6542 27.2991 25.8553 27.2158C26.0564 27.1324 26.2391 27.0103 26.393 26.8563C26.5468 26.7024 26.6689 26.5196 26.7521 26.3184C26.8353 26.1173 26.8781 25.9017 26.8779 25.684V15.934L34.3169 23.371Z" fill="#6049CD"/>
</svg>
