<svg width="72" height="82" viewBox="0 0 72 82" fill="none" xmlns="http://www.w3.org/2000/svg">
<path d="M31.438 57.249L31.038 54.409C28.5343 55.6463 25.7778 56.2864 22.985 56.279C21.422 56.2865 19.8649 56.0875 18.354 55.687L18.347 57.787C18.9608 57.908 19.5409 58.1612 20.047 58.529C20.521 58.8813 20.9215 59.323 21.226 59.829C21.5171 60.3054 21.7339 60.8233 21.869 61.365L21.902 61.377C21.993 61.408 22.11 61.442 22.241 61.477C22.505 61.549 22.831 61.626 23.161 61.699C23.782 61.836 24.416 61.96 24.713 62.017C25.2822 61.4743 25.9211 61.0099 26.613 60.636C27.1153 60.36 27.6761 60.2075 28.249 60.191C28.684 60.1877 29.1112 60.3065 29.482 60.534C29.7862 60.725 30.0501 60.9737 30.259 61.266C30.3346 61.37 30.4045 61.4782 30.468 61.59C30.546 61.409 30.62 61.211 30.689 61.002C30.8517 60.49 30.9852 59.9691 31.089 59.442C31.303 58.398 31.409 57.456 31.431 57.249" fill="#8C3BFF"/>
<path d="M24.681 17.365C23.749 17.7647 22.8941 18.3245 22.155 19.019C21.5871 19.5517 21.0918 20.1569 20.682 20.819C21.3467 20.5742 21.991 20.2772 22.609 19.931C24.0777 19.0609 25.6028 18.2895 27.174 17.622C28.1352 17.2245 29.1334 16.923 30.154 16.722C29.6191 16.6529 29.0804 16.6172 28.541 16.615C27.2166 16.6 25.9032 16.8555 24.681 17.366" fill="#8C3BFF"/>
<path d="M4.84598 27.508C5.62698 26.525 7.44599 27.421 9.96799 27.855C14.7302 28.4865 19.5741 27.7642 23.945 25.771C29.415 23.171 30.631 23.688 32.807 25.164C34.983 26.64 35.492 32.283 32.367 34.713C29.242 37.143 16.74 38.62 12.138 37.926C7.53597 37.232 4.846 35.756 3.978 32.109C3.11 28.462 4.84598 27.509 4.84598 27.509M6.76297 39.623C8.89568 40.0326 11.0645 40.2246 13.236 40.196C19.1707 40.1505 25.0718 39.3004 30.778 37.669C31.9198 37.3486 33.02 36.8952 34.056 36.318C35.2576 35.6194 36.3953 34.8162 37.456 33.918C38.2205 33.2185 38.8306 32.3669 39.247 31.418C39.6371 30.5486 39.9805 29.659 40.276 28.753C40.5506 27.942 40.6891 27.0912 40.6859 26.235C40.6675 24.4326 40.1281 22.6739 39.133 21.171C38.1698 19.6571 36.7607 18.4793 35.0999 17.8C34.1552 17.4309 33.1493 17.2436 32.135 17.248C30.5194 17.2915 28.9272 17.6449 27.445 18.289C25.9042 18.9453 24.4083 19.7023 22.967 20.555C20.0633 22.0465 16.8423 22.8147 13.578 22.794C12.4821 22.8173 11.3884 22.6884 10.328 22.411C9.82857 22.271 9.31162 22.2036 8.793 22.211C7.65281 22.2403 6.52115 22.4164 5.426 22.735C5.097 22.826 4.79594 22.918 4.53494 23.002C0.572945 24.911 -0.606014 29.831 2.50199 35.618C3.43295 37.3919 4.93384 38.8009 6.76297 39.618" fill="#8C3BFF"/>
<path d="M10.247 20.618C9.28827 20.6432 8.35779 20.948 7.57001 21.495C7.52201 21.527 7.47902 21.559 7.43402 21.59C7.88437 21.5272 8.33834 21.4938 8.79303 21.49C9.38113 21.4815 9.96738 21.5573 10.534 21.715C11.5184 21.9706 12.5332 22.0897 13.55 22.069C13.1126 21.6586 12.6174 21.3145 12.08 21.048C11.5099 20.7659 10.8831 20.6175 10.247 20.614" fill="#8C3BFF"/>
<path d="M30.047 62.365C29.9978 62.2375 29.9401 62.1136 29.874 61.994C29.6958 61.6525 29.4332 61.3622 29.111 61.151C28.8542 60.9926 28.5577 60.9104 28.256 60.914C27.7972 60.9313 27.3491 61.0567 26.948 61.28C26.3013 61.6323 25.7047 62.0695 25.174 62.58L24.949 65.056L24.762 70.776C24.9115 71.0189 25.1227 71.2178 25.374 71.3525C25.6254 71.4873 25.908 71.553 26.193 71.543C26.788 71.5137 27.3689 71.3513 27.893 71.068C28.1288 70.9497 28.3575 70.8179 28.578 70.673C28.621 70.48 28.678 70.273 28.733 70.073L30.077 62.437C30.071 62.418 30.062 62.396 30.052 62.37" fill="#8C3BFF"/>
<path d="M44.652 26.639C49.166 26.682 46.735 31.545 45.737 32.282C44.739 33.019 42.6551 32.455 42.6551 32.455C43.5231 31.5 44.6551 26.639 44.6551 26.639M24.2 52.6C23.3976 52.6 22.6132 52.3621 21.9461 51.9163C21.2789 51.4705 20.7589 50.8369 20.4519 50.0956C20.1448 49.3542 20.0644 48.5385 20.221 47.7515C20.3775 46.9645 20.7639 46.2417 21.3313 45.6743C21.8986 45.1069 22.6216 44.7205 23.4085 44.564C24.1955 44.4074 25.0113 44.4878 25.7526 44.7948C26.4939 45.1019 27.1275 45.6219 27.5733 46.2891C28.0191 46.9562 28.257 47.7406 28.257 48.543C28.2568 49.6189 27.8292 50.6507 27.0684 51.4114C26.3077 52.1722 25.2759 52.5997 24.2 52.6M6.01003 21.85C6.35176 21.5002 6.72912 21.1872 7.13601 20.916C8.04961 20.2763 9.13203 19.921 10.247 19.895C10.992 19.8988 11.7264 20.0714 12.395 20.4C13.2086 20.8117 13.9392 21.3701 14.55 22.047C16.2881 21.9569 18.0091 21.6584 19.676 21.158C19.9602 20.5599 20.3168 19.999 20.738 19.488C21.7037 18.28 22.9503 17.3266 24.369 16.711C25.6887 16.1542 27.1088 15.8747 28.541 15.89C30.0097 15.9063 31.4686 16.1312 32.874 16.558C33.7276 16.624 34.5667 16.8161 35.364 17.128C37.1623 17.8622 38.6892 19.1352 39.735 20.772C40.8067 22.3929 41.387 24.289 41.406 26.232C41.4087 27.1678 41.257 28.0976 40.957 28.984C40.5583 30.2963 40.0182 31.5614 39.346 32.757C38.7371 33.7251 37.9417 34.5624 37.006 35.22C36.316 35.738 35.4841 36.277 34.4391 36.93C33.3512 37.5409 32.1943 38.02 30.993 38.357C30.054 38.65 28.993 38.932 27.852 39.197V40.746C25.508 42.222 19.561 41.876 19.561 41.876L18.847 40.637C16.962 40.816 15.063 40.918 13.236 40.918H12.993C14.1984 41.7609 15.5611 42.3523 17 42.657C16.2655 43.6879 15.8434 44.9086 15.784 46.173C15.784 46.173 13.084 47.136 9.98403 48.26C10.267 48.598 10.572 48.99 10.878 49.437C12.2821 51.3895 13.0636 53.7207 13.12 56.125C13.1195 56.5261 13.0948 56.9269 13.046 57.325L17.6291 54.839V54.691L17.7931 54.75L17.8061 54.743V54.754L18.106 54.862H18.121C18.135 54.868 18.156 54.874 18.185 54.883C18.242 54.902 18.329 54.929 18.443 54.961C18.67 55.026 19.006 55.114 19.434 55.201C20.5989 55.4365 21.7846 55.5545 22.973 55.553C25.821 55.5631 28.6273 54.8699 31.143 53.535L31.165 53.523L34.159 48.146L42.813 49.538L42.899 49.638C42.899 49.638 43.876 50.738 44.927 51.998C45.1413 51.6919 45.3724 51.3977 45.619 51.117C46.388 50.2195 47.3266 49.4828 48.381 48.949C49.4505 48.4135 50.6525 48.1999 51.841 48.334C51.627 48.187 51.416 48.042 51.207 47.904C50.1902 47.1862 49.0964 46.5842 47.946 46.109C46.1683 45.4085 44.5378 44.3807 43.139 43.079C42.763 42.741 42.432 42.421 42.156 42.139C40.7818 41.5305 39.4631 40.8034 38.215 39.966C39.474 39.619 41.21 36.32 41.21 36.32C47.071 37.32 48.893 34.453 49.631 33.02C50.369 31.587 51.194 27.55 51.455 26.681C51.716 25.812 50.499 23.426 50.022 22.905C49.545 22.384 46.246 22.037 46.246 22.037C48.6 10.925 42 5.89001 42 5.89001C32.391 -1.17199 23.016 1.49001 23.016 1.49001C3.90902 6.70001 5.36402 19.033 5.96902 21.857L6.00601 21.849" fill="#8C3BFF"/>
<path d="M46.147 54.678C45.793 54.193 45.338 53.62 44.87 53.049C43.934 51.905 42.94 50.766 42.546 50.317L42.455 50.217L34.555 48.947L31.901 53.713L32.333 56.902C32.666 57.287 34.163 59.027 36.552 61.944C37.3106 62.7915 38.2405 63.4684 39.28 63.93C40.4833 64.4937 41.7358 64.9453 43.022 65.279C45.1459 65.8173 47.2978 66.2383 49.468 66.54C50.833 66.7373 52.1702 67.0941 53.452 67.603C54.0533 67.8532 54.6253 68.1684 55.158 68.543C56.6256 67.0204 57.8886 65.313 58.915 63.464L54.968 62.949L53.361 59.975L52.443 59.392L51.365 61.479L49.575 62.606L47.27 61.021L46.797 55.698C46.7379 55.5696 46.6691 55.4459 46.591 55.328C46.475 55.144 46.322 54.928 46.145 54.682" fill="#8C3BFF"/>
<path d="M24.037 70.787L24.216 65.329L21.65 64.836L20.55 64.223L18.497 67.623L17.277 70.123C17.061 70.5646 16.9894 71.063 17.0723 71.5476C17.1552 72.0321 17.3885 72.4783 17.739 72.823L20.195 75.24L24.037 70.787Z" fill="#8C3BFF"/>
<path d="M49.445 71.69C48.3987 71.0257 47.2719 70.4974 46.092 70.118C43.447 69.191 40.3 68.523 38.367 68.058C37.813 67.924 37.358 67.808 37.03 67.701C36.2473 67.4073 35.5104 67.0032 34.842 66.501C34.0782 65.9502 33.3439 65.3597 32.642 64.732C31.842 64.027 31.157 63.36 30.721 62.925L29.761 68.378C31.7423 72.3842 34.3297 76.0608 37.432 79.278L50.16 72.289C49.943 72.0653 49.7037 71.8643 49.446 71.689" fill="#8C3BFF"/>
<path d="M64.375 61.507C64.381 61.385 64.385 61.262 64.385 61.144C64.409 59.7792 64.049 58.4351 63.346 57.265C62.7948 56.3531 62.0027 55.6109 61.057 55.12C60.805 54.9879 60.5612 54.8406 60.327 54.679C60.047 54.49 59.727 54.262 59.379 54.003C58.679 53.485 57.85 52.842 56.953 52.145C55.865 51.3 54.674 50.377 53.491 49.505C52.754 49.1919 51.9627 49.0264 51.162 49.018C50.3231 49.0214 49.4959 49.2142 48.742 49.582C48.0689 49.9121 47.4483 50.3397 46.9 50.851C46.3405 51.3663 45.8434 51.9457 45.419 52.577C45.625 52.829 45.83 53.077 46.025 53.329C46.473 53.894 46.872 54.429 47.148 54.848C47.285 55.0468 47.4009 55.2593 47.494 55.482L47.511 55.527L47.963 60.615L49.595 61.736L50.815 60.968L52.167 58.354L53.911 59.462L55.431 62.275L60.095 62.884C60.5654 62.8391 61.0329 62.7669 61.495 62.668C61.8694 62.5973 62.2073 62.3977 62.45 62.104C63.1193 62.0053 63.7691 61.8029 64.376 61.504" fill="#8C3BFF"/>
<path d="M56.162 70.569C56.112 70.493 56.056 70.422 56.001 70.348C55.6403 69.923 55.242 69.5314 54.811 69.178C54.302 68.8113 53.752 68.5052 53.172 68.266C51.9435 67.7791 50.662 67.4381 49.354 67.25C48.428 67.1 46.718 66.863 44.802 66.45C42.7907 66.0532 40.8323 65.4243 38.966 64.576C37.8316 64.0698 36.8184 63.3272 35.994 62.398C34.071 60.051 32.728 58.469 32.108 57.744C32.08 57.963 32.041 58.244 31.99 58.566C31.8589 59.43 31.6675 60.2838 31.417 61.121C31.3057 61.4832 31.1648 61.8358 30.996 62.175L31.143 62.323C31.395 62.576 31.755 62.93 32.183 63.334C33.1517 64.2586 34.1799 65.1188 35.261 65.909C35.8705 66.3672 36.5415 66.7375 37.254 67.009C37.587 67.117 38.125 67.253 38.787 67.409C39.449 67.565 40.241 67.747 41.098 67.953C42.9408 68.3748 44.7599 68.8935 46.548 69.507C47.633 69.8738 48.6743 70.359 49.653 70.954C50.1067 71.235 50.5152 71.583 50.865 71.986C51.1204 72.2841 51.3017 72.6385 51.394 73.02C51.501 73.1454 51.5933 73.2826 51.669 73.429C52.016 74.123 48.833 74.644 49.875 77.365C50.917 80.086 54.621 78.58 54.621 78.58C58.859 75.429 57.592 72.34 56.175 70.556L56.162 70.569Z" fill="#8C3BFF"/>
<path d="M70.986 57.556C67.9899 52.2406 63.0705 48.2757 57.24 46.477C53.94 45.652 48.254 44.177 44.695 43.091C44.465 43.021 44.237 42.947 44.013 42.87C45.2487 43.9617 46.667 44.8273 48.203 45.427C49.2382 45.8431 50.2262 46.3684 51.15 46.994C52.017 47.551 52.933 48.194 53.85 48.873C53.925 48.905 54 48.935 54.076 48.973L54.052 49.025C54.216 49.146 54.379 49.266 54.543 49.389C56.834 51.106 59.069 52.921 60.443 53.889C60.7403 54.1057 61.0517 54.3025 61.375 54.478C62.441 55.0282 63.334 55.8626 63.955 56.889C64.5698 57.9003 64.946 59.0385 65.055 60.217L65.095 60.154C66.705 61.9904 68.2024 63.9226 69.579 65.94C69.6666 66.0617 69.7885 66.1547 69.9291 66.207C70.0696 66.2594 70.2225 66.2688 70.3685 66.2341C70.5144 66.1994 70.6467 66.1221 70.7487 66.012C70.8506 65.902 70.9175 65.7641 70.941 65.616L71.625 61.302C71.833 60.0181 71.6075 58.7015 70.984 57.56" fill="#8C3BFF"/>
<path d="M28.553 71.53C28.464 71.581 28.369 71.63 28.265 71.687C27.6279 72.036 26.9188 72.2335 26.193 72.264C25.8017 72.2699 25.4148 72.1814 25.065 72.006C24.8117 71.8722 24.585 71.6932 24.396 71.478L22.778 73.354C21.863 74.879 19.913 78.142 19.604 78.754C19.204 79.564 19.547 79.854 19.662 80.721C19.777 81.588 27.013 82 27.013 82C27.013 82 29.734 74.765 30.023 73.723C30.273 72.823 28.923 71.792 28.553 71.53Z" fill="#8C3BFF"/>
<path d="M12.4 56.125C12.3453 53.8968 11.6262 51.7358 10.335 49.919C10.0056 49.4313 9.64734 48.9638 9.26202 48.519C5.40602 49.919 1.23302 51.473 1.02502 51.681C0.634024 52.072 0.0700073 57.194 0.0700073 57.194L1.54498 59.365L2.54498 59.408L3.414 59.972L4.61401 60.117L7.21399 60.349L7.914 59.365L8.95502 59.539L12.255 57.748C12.3506 57.2109 12.3991 56.6665 12.4 56.121" fill="#8C3BFF"/>
<path d="M20.29 63.252L20.302 63.258L21.221 61.811L21.201 61.685V61.674L21.191 61.625C21.182 61.582 21.167 61.516 21.144 61.433C21.0813 61.2055 21.0021 60.9829 20.907 60.767C20.6309 60.1149 20.1889 59.5464 19.625 59.118C19.1276 58.7575 18.5468 58.5293 17.937 58.455L17.697 58.422L14.741 61.762C14.5394 61.9896 14.3913 62.2594 14.3077 62.5517C14.2241 62.844 14.2071 63.1513 14.2578 63.4511C14.3085 63.7508 14.4258 64.0354 14.6009 64.2839C14.7761 64.5324 15.0047 64.7385 15.27 64.887L18.286 66.576L20.29 63.252Z" fill="#8C3BFF"/>
</svg>
