<svg width="21" height="21" viewBox="0 0 21 21" fill="none" xmlns="http://www.w3.org/2000/svg">
<path d="M4.37592 9.908C4.37618 9.68327 4.46569 9.46781 4.6247 9.309C4.7837 9.15019 4.99921 9.06095 5.22394 9.06095V9.06095H6.63495C6.86012 9.06095 7.07607 9.15045 7.23529 9.30967C7.39451 9.46889 7.48395 9.68478 7.48395 9.90995V15.248C7.64295 15.201 7.84689 15.148 8.06989 15.098C8.22514 15.0617 8.36359 14.9739 8.46271 14.849C8.56183 14.7241 8.61581 14.5694 8.61591 14.41V7.78898C8.61591 7.56399 8.7052 7.3482 8.8642 7.18901C9.0232 7.02982 9.23893 6.94025 9.46393 6.93998H10.8799C11.1051 6.93998 11.3211 7.02942 11.4803 7.18864C11.6395 7.34786 11.7289 7.56381 11.7289 7.78898V13.934C11.7289 13.934 12.0829 13.79 12.4289 13.645C12.557 13.5908 12.6663 13.5 12.7431 13.3841C12.8199 13.2681 12.8609 13.1321 12.8609 12.993V5.66697C12.8609 5.4418 12.9503 5.22585 13.1096 5.06663C13.2688 4.90741 13.4847 4.81797 13.7099 4.81797H15.124C15.3489 4.8185 15.5644 4.90817 15.7233 5.0673C15.8823 5.22643 15.9717 5.44206 15.972 5.66697V11.7C17.2728 10.7898 18.4363 9.69761 19.4269 8.45695C19.5701 8.27041 19.6648 8.05133 19.7027 7.81925C19.7406 7.58718 19.7204 7.34937 19.644 7.12699C19.1871 5.81405 18.4612 4.61091 17.5128 3.59452C16.5643 2.57814 15.4143 1.7709 14.136 1.22441C12.8578 0.677912 11.4796 0.40416 10.0895 0.420756C8.69948 0.437352 7.32824 0.743925 6.06342 1.32078C4.7986 1.89764 3.66808 2.73212 2.7442 3.77085C1.82032 4.80959 1.12344 6.02972 0.69806 7.35319C0.272679 8.67666 0.128204 10.0743 0.273866 11.4568C0.419528 12.8393 0.852021 14.1762 1.54389 15.382C1.6645 15.59 1.84205 15.7593 2.05548 15.87C2.26892 15.9807 2.50946 16.0282 2.74896 16.007C3.01696 15.983 3.34896 15.95 3.74896 15.907C3.92099 15.8873 4.07984 15.8052 4.19525 15.6761C4.31067 15.5471 4.37458 15.3801 4.37494 15.2069V9.90696" fill="white"/>
<path d="M4.34595 18.469C5.8369 19.5533 7.59872 20.2041 9.43652 20.3493C11.2743 20.4946 13.1165 20.1287 14.7593 19.2921C16.4021 18.4555 17.7815 17.1807 18.7449 15.6089C19.7083 14.0372 20.2181 12.2295 20.218 10.386C20.218 10.155 20.208 9.92803 20.192 9.70203C16.541 15.148 9.79895 17.693 4.34595 18.469" fill="white"/>
</svg>
