<svg width="30" height="30" viewBox="0 0 30 30" fill="none" xmlns="http://www.w3.org/2000/svg">
<path d="M25.506 13.766C25.5062 16.0777 24.8209 18.3376 23.5368 20.2598C22.2526 22.182 20.4272 23.6802 18.2915 24.565C16.1558 25.4498 13.8058 25.6814 11.5385 25.2305C9.27116 24.7797 7.18843 23.6666 5.55374 22.032C3.91904 20.3975 2.80571 18.3149 2.35464 16.0476C1.90358 13.7803 2.13507 11.4302 3.01968 9.29443C3.90429 7.15867 5.40226 5.3332 7.32437 4.04886C9.24647 2.76452 11.5063 2.07899 13.818 2.07899C16.9177 2.07899 19.8904 3.31027 22.0823 5.50198C24.2742 7.69369 25.5057 10.6663 25.506 13.766V13.766Z" stroke="#7652DC" stroke-width="3.963" stroke-miterlimit="10" stroke-linecap="round"/>
<path d="M22.069 22.02L27.534 27.482" stroke="#7652DC" stroke-width="3.963" stroke-miterlimit="10" stroke-linecap="round"/>
</svg>
