<svg width="39" height="39" viewBox="0 0 39 39" fill="none" xmlns="http://www.w3.org/2000/svg">
<path d="M19.291 0.915009C23.0194 0.915009 26.664 2.02061 29.7641 4.09198C32.8641 6.16335 35.2803 9.10746 36.7071 12.552C38.1338 15.9966 38.5072 19.7869 37.7798 23.4436C37.0524 27.1004 35.257 30.4593 32.6207 33.0957C29.9843 35.732 26.6254 37.5274 22.9687 38.2548C19.3119 38.9822 15.5216 38.6089 12.077 37.1821C8.63246 35.7553 5.68834 33.3391 3.61697 30.239C1.54559 27.139 0.440002 23.4944 0.440002 19.766C0.440002 14.7664 2.42608 9.97159 5.96133 6.43634C9.49657 2.90109 14.2914 0.915009 19.291 0.915009Z" fill="#F0B90B"/>
<path d="M14.413 17.741L17.267 14.896L17.867 14.296L19.293 12.87L24.15 17.743L26.978 14.898L19.293 7.198L11.583 14.898L14.413 17.741Z" fill="white"/>
<path d="M19.2991 16.922L16.46 19.761L19.2991 22.6L22.1381 19.761L19.2991 16.922Z" fill="white"/>
<path d="M24.153 21.8L19.294 26.659L17.588 24.953L17.274 24.639L14.413 21.8L11.585 24.628L19.295 32.328L26.98 24.628L24.153 21.8Z" fill="white"/>
<path d="M9.56206 16.93L6.72302 19.769L9.56206 22.608L12.4011 19.769L9.56206 16.93Z" fill="white"/>
<path d="M29.0201 16.928L26.181 19.767L29.0201 22.606L31.8591 19.767L29.0201 16.928Z" fill="white"/>
</svg>
