<svg xmlns="http://www.w3.org/2000/svg" viewBox="0 0 20 23.04"><defs><style>.cls-1{opacity:0.65;}.cls-2,.cls-3{fill:#fff;}.cls-3{fill-rule:evenodd;}</style></defs><g id="Layer_2" data-name="Layer 2"><g id="Layer_1-2" data-name="Layer 1"><g class="cls-1"><path class="cls-2" d="M7.84,5.24c-.25,0-.26,0-.14-.06a3.89,3.89,0,0,1,1.12.09,4.89,4.89,0,0,1,2.44,1.64l.22.25.31,0a6.6,6.6,0,0,1,3.8.47,4.72,4.72,0,0,1,.85.5,1.06,1.06,0,0,1,.09.33,2.11,2.11,0,0,1-.13,1.3.34.34,0,0,0,0,.38.36.36,0,0,0,.32.2c.29,0,.58-.45.72-1.08L17.46,9l.11.12a4.62,4.62,0,0,1,1.15,2.28l0,.18-.11-.16a1.94,1.94,0,0,0-.57-.6,3.49,3.49,0,0,0-2-.42A8.05,8.05,0,0,1,13.94,10c-1-.32-1.48-.74-2.63-2.27a10,10,0,0,0-1.15-1.35A4,4,0,0,0,7.84,5.24Z"/><path class="cls-2" d="M16.69,6.75a2.67,2.67,0,0,1,.22-1,.78.78,0,0,1,.1-.21.5.5,0,0,1,0,.18,2.21,2.21,0,0,0,0,1c.08.53.12.6.69,1.19.26.27.57.61.69.76l.2.26-.2-.19A7.19,7.19,0,0,0,17.35,8c-.09,0-.1,0-.16,0s-.06.12-.06.46a2.54,2.54,0,0,1-.26,1.22c-.09.17-.11.14,0-.06a1.77,1.77,0,0,0,.07-.74c0-1-.12-1.28-.85-1.7a5.89,5.89,0,0,0-.66-.34l-.32-.16a5.87,5.87,0,0,1,1,.3c.41.17.48.18.53.17S16.68,7,16.69,6.75Z"/><path class="cls-2" d="M8.33,8.52A4.21,4.21,0,0,1,7.58,6l0-.25.12,0A2.76,2.76,0,0,1,8.48,6c.48.29.69.68.89,1.65.06.29.15.62.18.73a4.27,4.27,0,0,0,.48.85c.13.19,0,.29-.25.27A2.47,2.47,0,0,1,8.33,8.52Z"/><path class="cls-2" d="M16.09,13.69c-2.36-.95-3.19-1.77-3.19-3.16,0-.21,0-.37,0-.37a1.53,1.53,0,0,1,.21.15,4.69,4.69,0,0,0,2.49.76,10.66,10.66,0,0,1,1.82.38A3.47,3.47,0,0,1,20,14.22a5,5,0,0,1-.07,1.49,2.89,2.89,0,0,1-.38.85.21.21,0,0,1,0-.15,1.92,1.92,0,0,0-.69-1.35A9.66,9.66,0,0,0,16.09,13.69Z"/><path class="cls-2" d="M14.42,14.08a2.15,2.15,0,0,0-.12-.5l-.06-.18.11.13a2,2,0,0,1,.38.69,1.41,1.41,0,0,1,.09.67,1.52,1.52,0,0,1-.09.64,2.12,2.12,0,0,1-.5.79,2.84,2.84,0,0,1-1.78.79l-.9.07a7,7,0,0,0-2,.33.32.32,0,0,1-.16,0,2.55,2.55,0,0,1,.65-.38,6.18,6.18,0,0,1,1.78-.48,7.34,7.34,0,0,0,1-.21A2.06,2.06,0,0,0,14.42,14.08Z"/><path class="cls-2" d="M15.5,16a2.79,2.79,0,0,1-.21-1.92c0-.06.05-.12.07-.12a.4.4,0,0,1,.17.08c.14.1.44.26,1.2.68a6,6,0,0,1,1.89,1.39,3,3,0,0,1,.63,1.44A4.77,4.77,0,0,1,19.19,19a3.49,3.49,0,0,1-1.73,2.28l-.25.12a1.14,1.14,0,0,1,.11-.26,2.35,2.35,0,0,0,.11-1.84,7.46,7.46,0,0,0-.95-1.71A11.45,11.45,0,0,1,15.5,16Z"/><path class="cls-2" d="M6.65,19.63a6.47,6.47,0,0,1,3-1.43,4.34,4.34,0,0,1,1.53.06,2.68,2.68,0,0,1,1.5,1,3.51,3.51,0,0,1,.55,1.62c0,.32.1.65.12.72a1.56,1.56,0,0,0,.52.94,1.81,1.81,0,0,0,1.64.05l.2-.06a1.9,1.9,0,0,1-.51.34,1.66,1.66,0,0,1-.86.21,1.72,1.72,0,0,1-1.45-.9,7.82,7.82,0,0,1-.39-.78,2.87,2.87,0,0,0-1.11-1.57A1.48,1.48,0,0,0,10,19.66a.89.89,0,0,0-.31,1.39,1.23,1.23,0,0,0,.67.36.73.73,0,0,0,.82-.73.56.56,0,0,0-.39-.58c-.38-.17-.79,0-.78.39a.32.32,0,0,0,.22.32c.1.05.1.05,0,0a.44.44,0,0,1-.16-.77.85.85,0,0,1,1.27.27,1.24,1.24,0,0,1,0,.81A1.12,1.12,0,0,1,10,21.8a2,2,0,0,1-1-.7,3.14,3.14,0,0,0-2.34-1.2l-.23,0Z"/><path class="cls-3" d="M.4.51c2.77,3.36,7,8.59,7.25,8.88s.11.46-.19.62a1.74,1.74,0,0,1-.68.19A.88.88,0,0,1,6.21,10c-.1-.11-.57-.79-1.61-2.42C3.8,6.3,3.12,5.26,3.11,5.25a22.88,22.88,0,0,0,1.4,2.57A20.31,20.31,0,0,1,5.73,10.1c0,.15-.05.24-.24.45a2.67,2.67,0,0,0-.57,1.6,5,5,0,0,1-1.36,2.74,4.85,4.85,0,0,0-.74,1,2,2,0,0,0-.24,1,2.91,2.91,0,0,0,.15,1.17,3.9,3.9,0,0,0,.57,1.11,2.63,2.63,0,0,1,.44.87c0,.1,0,.1.45,0A4.67,4.67,0,0,0,6.52,18.9a1.06,1.06,0,0,0,.36-.9,1,1,0,0,0-.08-.5A2.15,2.15,0,0,0,6,16.69c-.64-.44-.91-.79-1-1.27A2.23,2.23,0,0,1,5.35,14a4.36,4.36,0,0,0,.52-1.87c0-.5.09-.7.24-.86A.9.9,0,0,1,6.76,11a2.15,2.15,0,0,0,1.31-.54,1.1,1.1,0,0,0,.4-.86V9.31l-.15-.16C7.77,8.51,0,0,0,0S.18.23.4.51ZM4.05,17.4a.49.49,0,0,0-.15-.65c-.2-.13-.51-.07-.51.11a.12.12,0,0,0,.09.12c.11.06.12.12,0,.25s-.09.25,0,.33A.34.34,0,0,0,4.05,17.4Z"/><path class="cls-3" d="M8.86,11.16a1,1,0,0,0-.64.7,1,1,0,0,0,.06.64c.13.16.25.21.58.21.66,0,1.21-.28,1.27-.63a.91.91,0,0,0-.53-.85A1.18,1.18,0,0,0,8.86,11.16Zm.76.59a.26.26,0,0,0-.12-.4c-.32-.21-.8,0-.8.27,0,.15.25.32.48.32A.67.67,0,0,0,9.62,11.75Z"/></g></g></g></svg>