<svg width="18" height="20" viewBox="0 0 18 20" fill="none" xmlns="http://www.w3.org/2000/svg">
<path d="M17.7 8C17.679 8.488 17.695 8.98199 17.631 9.46399C17.4494 11.0726 16.9185 12.622 16.0754 14.0039C15.2323 15.3858 14.0973 16.5667 12.75 17.464C11.377 18.444 9.84027 19.1714 8.21198 19.612C7.33753 19.8461 6.43391 19.9529 5.52899 19.929C5.02255 19.9277 4.51679 19.8926 4.01501 19.824C3.61614 19.734 3.22618 19.6082 2.84998 19.448C2.31398 19.248 1.79 19.024 1.25 18.848C1.013 18.772 0.934026 18.599 0.827026 18.426L0.771973 18.042C0.785516 18.0045 0.794921 17.9656 0.799988 17.926C0.792726 17.7937 0.8333 17.663 0.914246 17.558C0.995191 17.4531 1.11116 17.3807 1.24103 17.354C1.66571 17.2067 2.0766 17.0223 2.46899 16.803C3.05386 16.4796 3.69021 16.2597 4.34998 16.153C6.0213 15.9053 7.62618 15.3255 9.07001 14.448C10.2734 13.7597 11.2894 12.7865 12.0287 11.6137C12.768 10.4409 13.208 9.10456 13.31 7.72198C13.3825 7.06721 13.4991 6.41808 13.659 5.77899C13.8575 4.93958 13.7633 4.05756 13.392 3.27899C13.1956 2.85816 12.9766 2.44827 12.736 2.05103C12.513 1.68203 12.554 1.47002 12.949 1.28302C13.216 1.15602 13.488 1.03903 13.758 0.91803L14.142 0.862976C14.375 0.962976 14.301 1.16299 14.29 1.34399C14.2439 1.54634 14.2344 1.75531 14.262 1.961C14.5029 2.65979 14.7795 3.34569 15.091 4.01599C15.2305 4.27793 15.4431 4.49371 15.703 4.63702C16.3934 5.00224 16.9429 5.58647 17.265 6.29797C17.393 6.58197 17.48 6.88398 17.586 7.17798L17.7 8Z" fill="#F9D967"/>
</svg>
